<svg width="16" height="16" viewBox="0 0 16 16" fill="none" xmlns="http://www.w3.org/2000/svg"><path d="M15 5L13.4444 12.1996C13.3717 12.7155 13.1762 13.1781 12.892 13.507C12.6078 13.8359 12.2528 14.0102 11.8889 13.9995H4.11111C3.74719 14.0102 3.39223 13.8359 3.108 13.507C2.82377 13.1781 2.62828 12.7155 2.55556 12.1996L1 5H15Z" stroke="#BDBDBD" strokeWidth="1.25" strokeLinecap="round" strokeLinejoin="round"></path><path d="M8 11C8.82843 11 9.5 10.3284 9.5 9.5C9.5 8.67157 8.82843 8 8 8C7.17157 8 6.5 8.67157 6.5 9.5C6.5 10.3284 7.17157 11 8 11Z" stroke="#BDBDBD" strokeWidth="1.25" strokeLinecap="round" strokeLinejoin="round"></path><path d="M4 5L6 1" stroke="#BDBDBD" strokeWidth="1.25" strokeLinecap="round" strokeLinejoin="round"></path><path d="M12 5L10 1" stroke="#BDBDBD" strokeWidth="1.25" strokeLinecap="round" strokeLinejoin="round"></path></svg>